<?xml version="1.0" encoding="UTF-8" standalone="no"?>
<!DOCTYPE svg PUBLIC "-//W3C//DTD SVG 1.1//EN" "http://www.w3.org/Graphics/SVG/1.1/DTD/svg11.dtd">
<!-- Created with Vectornator (http://vectornator.io/) -->
<svg height="100%" stroke-miterlimit="10" style="fill-rule:nonzero;clip-rule:evenodd;stroke-linecap:round;stroke-linejoin:round;" version="1.1" viewBox="0 0 3840 2160" width="100%" xml:space="preserve" xmlns="http://www.w3.org/2000/svg" xmlns:vectornator="http://vectornator.io" xmlns:xlink="http://www.w3.org/1999/xlink">
<defs/>
<g id="Layer-1" vectornator:layerName="Layer 1">
<path d="M1736.47 166.062C1728.2 166.063 1719.96 171.914 1713.69 183.594L1454.62 666.312C1442.35 689.186 1411.66 711.514 1386.12 716.125L847.219 813.406C821.14 818.115 814.793 837.667 833.125 856.812L1211.94 1252.44C1229.89 1271.18 1241.63 1307.31 1238.12 1333.03L1164.06 1875.91C1160.48 1902.18 1177.1 1914.25 1200.97 1902.72L1694.12 1664.5C1717.49 1653.21 1755.44 1653.21 1778.81 1664.5L2271.97 1902.72C2295.83 1914.25 2312.43 1902.18 2308.84 1875.91L2234.81 1333.03C2231.3 1307.31 2243.02 1271.18 2260.97 1252.44L2639.81 856.781C2658.14 837.636 2651.8 818.115 2625.72 813.406L2086.81 716.125C2061.28 711.514 2030.56 689.186 2018.28 666.312L1759.25 183.594C1752.98 171.914 1744.73 166.062 1736.47 166.062Z" fill="#000000" fill-rule="nonzero" opacity="1" stroke="none" vectornator:layerName="path"/>
<path d="M1736.47 165.594C1735.42 165.623 1735.76 165.643 1735.41 165.625C1734.39 165.575 1733.23 165.862 1732.25 166.094C1729.27 166.8 1726.5 168.257 1724.06 170.094C1716.5 175.79 1712.58 184.693 1708.22 192.812C1690.34 226.126 1672.47 259.437 1654.59 292.75C1604.34 386.404 1554.07 480.065 1503.81 573.719L1468.41 639.719C1464.86 646.319 1461.32 652.9 1457.78 659.5C1455.29 664.146 1452.91 668.864 1449.88 673.188C1442.81 683.244 1433.55 691.755 1423.53 698.812C1414.54 705.145 1404.66 710.471 1394.12 713.719C1388.74 715.379 1383.16 716.219 1377.62 717.219C1370.61 718.486 1363.58 719.764 1356.56 721.031C1330.25 725.782 1303.94 730.53 1277.62 735.281C1173.42 754.096 1069.23 772.903 965.031 791.719C927.841 798.434 890.658 805.159 853.469 811.875C850.303 812.447 847.096 812.928 843.969 813.688C836.631 815.469 828.966 819.029 824.906 825.719C824.166 826.927 823.568 828.216 823.125 829.562C822.581 831.261 822.287 833.029 822.25 834.812C822.07 842.247 825.978 849.182 830.656 854.688C832.281 856.6 834.046 858.376 835.781 860.188C839.728 864.308 843.679 868.41 847.625 872.531C873.769 899.831 899.917 927.138 926.062 954.438C999.076 1030.67 1072.09 1106.92 1145.09 1183.16C1160.39 1199.12 1175.68 1215.09 1190.97 1231.06L1206.5 1247.28C1210.55 1251.51 1214.63 1255.66 1218.06 1260.44C1226.37 1272.01 1232.01 1285.6 1235.34 1299.41C1237.34 1307.66 1238.5 1316.18 1238.38 1324.69C1238.29 1330.33 1237.39 1335.89 1236.62 1341.47C1235.61 1348.89 1234.61 1356.3 1233.59 1363.72C1229.69 1392.35 1225.78 1421 1221.88 1449.62C1207.71 1553.54 1193.54 1657.43 1179.38 1761.34C1174.36 1798.1 1169.35 1834.87 1164.34 1871.62C1163.93 1874.63 1163.45 1877.63 1163.31 1880.66C1162.96 1888.37 1164.49 1896.94 1170.41 1902.41C1171.44 1903.36 1172.59 1904.19 1173.81 1904.88C1175.39 1905.75 1177.09 1906.37 1178.84 1906.78C1185.29 1908.3 1192.12 1906.79 1198.12 1904.31C1200.44 1903.36 1202.68 1902.21 1204.94 1901.12L1222.28 1892.75C1254.39 1877.24 1286.49 1861.73 1318.59 1846.22C1415.87 1799.22 1513.16 1752.22 1610.44 1705.22C1629.06 1696.22 1647.69 1687.22 1666.31 1678.22C1673.38 1674.81 1680.44 1671.38 1687.5 1667.97C1692.78 1665.42 1697.99 1662.82 1703.59 1661.03C1718.85 1656.17 1735.8 1655.22 1751.62 1657.22C1758.75 1658.12 1765.84 1659.64 1772.59 1662.12C1777.68 1663.99 1782.5 1666.55 1787.38 1668.91C1794.12 1672.16 1800.85 1675.4 1807.59 1678.66C1834.56 1691.68 1861.56 1704.72 1888.53 1717.75C1981.97 1762.87 2075.38 1808 2168.81 1853.12C2201.88 1869.1 2234.96 1885.06 2268.03 1901.03C2270.75 1902.35 2273.45 1903.72 2276.28 1904.78C2283.16 1907.37 2291.28 1908.59 2298.12 1905.25C2299.37 1904.64 2300.55 1903.89 2301.62 1903C2303 1901.88 2304.19 1900.53 2305.19 1899.06C2309.12 1893.28 2309.89 1885.9 2309.38 1879.09C2309.18 1876.6 2308.78 1874.11 2308.44 1871.62C2307.62 1865.62 2306.82 1859.63 2306 1853.62C2300.98 1816.87 2295.95 1780.1 2290.94 1743.34C2276.57 1638.02 2262.21 1532.7 2247.84 1427.38C2244.95 1406.17 2242.05 1384.96 2239.16 1363.75C2238.1 1355.97 2237.03 1348.21 2235.97 1340.44C2235.17 1334.62 2234.31 1328.83 2234.34 1322.94C2234.43 1308.04 2238.13 1293.07 2244 1279.44C2247.34 1271.68 2251.49 1264.21 2256.72 1257.56C2259.85 1253.58 2263.5 1250 2267 1246.34L2282.53 1230.12C2302.51 1209.26 2322.46 1188.4 2342.44 1167.53C2413.71 1093.08 2485.01 1018.64 2556.28 944.188C2581.68 917.654 2607.07 891.096 2632.47 864.562C2633.95 863.017 2635.43 861.483 2636.91 859.938C2639 857.755 2641.15 855.614 2643.03 853.25C2646.05 849.472 2648.5 844.953 2649.62 840.188C2648.39 845.436 2645.35 850.257 2641.91 854.312C2640.29 856.217 2638.51 858.008 2636.78 859.812C2632.83 863.934 2628.88 868.035 2624.94 872.156C2598.79 899.459 2572.65 926.791 2546.5 954.094C2473.24 1030.59 2399.98 1107.06 2326.72 1183.56C2311.92 1199.02 2297.14 1214.48 2282.34 1229.94L2266.06 1246.94C2261.99 1251.19 2257.88 1255.36 2254.44 1260.16C2245.73 1272.29 2239.95 1286.6 2236.69 1301.12C2234.83 1309.39 2233.77 1317.93 2234.09 1326.41C2234.29 1331.48 2235.16 1336.51 2235.84 1341.53C2236.86 1348.95 2237.86 1356.39 2238.88 1363.81C2242.82 1392.79 2246.77 1421.77 2250.72 1450.75C2264.83 1554.31 2278.95 1657.85 2293.06 1761.41C2298.07 1798.16 2303.08 1834.93 2308.09 1871.69C2308.5 1874.67 2308.96 1877.64 2309.09 1880.66C2309.44 1888.22 2307.96 1896.66 2302.16 1902.03C2301.16 1902.96 2300.06 1903.77 2298.88 1904.44C2297.34 1905.29 2295.68 1905.91 2293.97 1906.31C2287.62 1907.81 2280.91 1906.31 2275 1903.88C2272.69 1902.92 2270.44 1901.77 2268.19 1900.69C2262.41 1897.9 2256.65 1895.1 2250.88 1892.31C2218.45 1876.65 2186.02 1860.98 2153.59 1845.31C2056.64 1798.47 1959.68 1751.63 1862.72 1704.78C1844.1 1695.78 1825.46 1686.78 1806.84 1677.78C1799.78 1674.37 1792.72 1670.94 1785.66 1667.53C1780.36 1664.97 1775.13 1662.36 1769.5 1660.56C1754.18 1655.68 1737.15 1654.74 1721.25 1656.75C1714.09 1657.65 1706.94 1659.19 1700.16 1661.69C1695.06 1663.56 1690.23 1666.11 1685.34 1668.47C1678.6 1671.73 1671.87 1674.99 1665.12 1678.25C1638.15 1691.28 1611.19 1704.29 1584.22 1717.31C1491.11 1762.28 1397.99 1807.25 1304.88 1852.22C1271.8 1868.19 1238.73 1884.15 1205.66 1900.12C1203.09 1901.36 1200.54 1902.7 1197.91 1903.78C1190.8 1906.71 1182.24 1908.32 1175.03 1904.81C1173.81 1904.22 1172.65 1903.49 1171.59 1902.62C1170.26 1901.52 1169.09 1900.24 1168.12 1898.81C1164.25 1893.13 1163.49 1885.82 1164 1879.12C1164.19 1876.64 1164.6 1874.19 1164.94 1871.72C1165.76 1865.71 1166.59 1859.7 1167.41 1853.69C1172.42 1816.93 1177.42 1780.16 1182.44 1743.41C1196.82 1638.08 1211.21 1532.76 1225.59 1427.44C1228.49 1406.23 1231.39 1385.02 1234.28 1363.81C1235.34 1356.04 1236.41 1348.28 1237.47 1340.5C1238.27 1334.66 1239.13 1328.85 1239.09 1322.94C1239.01 1307.97 1235.28 1292.94 1229.38 1279.25C1226.01 1271.45 1221.82 1263.94 1216.56 1257.25C1213.42 1253.25 1209.79 1249.67 1206.28 1246C1201.35 1240.85 1196.4 1235.71 1191.47 1230.56C1171.49 1209.7 1151.54 1188.83 1131.56 1167.97C1060.29 1093.53 989.016 1019.07 917.75 944.625C892.104 917.835 866.459 891.039 840.812 864.25C839.333 862.704 837.854 861.17 836.375 859.625C834.296 857.454 832.158 855.322 830.281 852.969C825.597 847.097 821.88 839.477 823.406 831.781C823.668 830.459 824.061 829.161 824.625 827.938C827.272 822.199 832.796 818.445 838.531 816.219C842.721 814.592 847.099 813.857 851.5 813.062L865.188 810.594C903.431 803.693 941.663 796.776 979.906 789.875C1084.81 770.944 1189.72 752.027 1294.62 733.094C1314.97 729.421 1335.34 725.735 1355.69 722.062C1363.41 720.669 1371.12 719.268 1378.84 717.875C1384.65 716.828 1390.42 715.861 1396.03 714C1410.83 709.096 1424.5 700.415 1436 689.969C1441.82 684.68 1447.18 678.795 1451.56 672.25C1454.39 668.023 1456.66 663.445 1459.06 658.969C1462.44 652.683 1465.81 646.41 1469.19 640.125C1482.68 614.984 1496.16 589.829 1509.66 564.688C1557.05 476.379 1604.45 388.09 1651.84 299.781C1669.22 267.412 1686.6 235.026 1703.97 202.656C1706.84 197.314 1709.69 191.968 1712.56 186.625C1716.08 180.066 1720.02 173.504 1726.53 169.5C1728.36 168.373 1726.51 169.508 1736.47 166.531C1736.67 166.526 1736.79 166.339 1736.84 166.156C1736.81 166.15 1736.47 166.062 1736.47 166.062C1736.47 166.062 1736.75 166.054 1736.94 166.062C1736.93 165.811 1736.72 165.587 1736.47 165.594ZM1736.94 166.062C1736.94 166.113 1736.86 166.111 1736.84 166.156C1737.47 166.3 1743.96 167.831 1746.16 168.938C1744.4 167.91 1742.57 167.032 1740.59 166.562C1739.64 166.337 1738.49 166.042 1737.5 166.094C1737.31 166.104 1737.16 166.073 1736.94 166.062ZM1746.16 168.938C1746.64 169.219 1747.1 169.498 1747.56 169.812C1747.24 169.593 1746.99 169.301 1746.66 169.094C1746.58 169.045 1746.26 168.989 1746.16 168.938ZM1747.56 169.812C1748.26 170.285 1748.89 170.817 1749.53 171.344C1749.19 171.064 1748.95 170.703 1748.59 170.438C1748.27 170.194 1747.9 170.041 1747.56 169.812ZM1749.53 171.344C1750.64 172.267 1751.69 173.259 1752.66 174.312C1751.69 173.25 1750.64 172.258 1749.53 171.344ZM1752.66 174.312C1753.22 174.933 1753.79 175.529 1754.31 176.188C1753.79 175.535 1753.22 174.928 1752.66 174.312ZM1754.31 176.188C1755.04 177.106 1755.71 178.085 1756.38 179.062C1755.73 178.078 1755.04 177.119 1754.31 176.188ZM1756.38 179.062C1756.91 179.858 1757.5 180.614 1758 181.438C1757.5 180.615 1756.91 179.857 1756.38 179.062ZM2649.62 840.188C2650.03 838.473 2650.22 836.736 2650.19 834.969C2650.22 836.741 2650.02 838.488 2649.62 840.188ZM2650.19 834.969L2650.19 834.812C2650.19 834.749 2650.16 834.689 2650.16 834.625C2650.16 834.74 2650.19 834.854 2650.19 834.969ZM2650.16 834.625C2650.12 833.635 2650.23 832.652 2650.03 831.656C2649.76 830.297 2649.33 828.977 2648.75 827.719C2646.25 822.311 2641.26 818.583 2635.91 816.281C2631.3 814.304 2626.43 813.446 2621.53 812.562L2607.84 810.094C2569.95 803.256 2532.05 796.431 2494.16 789.594C2389.25 770.665 2284.34 751.71 2179.44 732.781C2158.74 729.046 2138.04 725.329 2117.34 721.594C2109.62 720.201 2101.91 718.799 2094.19 717.406C2088.41 716.363 2082.66 715.416 2077.06 713.562C2073.54 712.394 2070.07 710.978 2066.69 709.406C2070.59 711.236 2074.58 712.92 2078.69 714.188C2084.09 715.853 2089.67 716.685 2095.22 717.688C2102.24 718.955 2109.26 720.233 2116.28 721.5C2142.59 726.252 2168.91 730.998 2195.22 735.75C2299.42 754.568 2403.61 773.401 2507.81 792.219C2544.65 798.872 2581.5 805.504 2618.34 812.156C2621.85 812.789 2625.38 813.316 2628.84 814.156C2636.05 815.905 2643.6 819.399 2647.59 825.969C2648.31 827.149 2648.92 828.405 2649.34 829.719C2649.86 831.306 2650.1 832.957 2650.16 834.625ZM2066.69 709.406C2066.4 709.27 2066.1 709.139 2065.81 709C2066.1 709.138 2066.4 709.271 2066.69 709.406ZM2065.81 709C2062.43 707.389 2059.11 705.613 2055.91 703.656C2059.11 705.619 2062.42 707.372 2065.81 709ZM2055.91 703.656C2052.68 701.686 2049.56 699.546 2046.53 697.281C2047.39 697.919 2048.22 698.604 2049.09 699.219C2051.3 700.771 2053.6 702.242 2055.91 703.656ZM1758 181.469C1760.28 185.225 1762.26 189.21 1764.31 193.031C1763.13 190.826 1761.96 188.611 1760.78 186.406C1759.89 184.738 1758.97 183.086 1758 181.469ZM1817.94 292.969C1868.19 386.625 1918.41 480.281 1968.66 573.938C1980.46 595.937 1992.29 617.938 2004.09 639.938C2007.63 646.537 2011.15 653.119 2014.69 659.719C2016.85 663.741 2019.01 667.769 2021.5 671.594C2018.8 667.492 2016.6 663.073 2014.28 658.75C2010.91 652.465 2007.53 646.191 2004.16 639.906C1990.66 614.766 1977.15 589.609 1963.66 564.469C1916.26 476.162 1868.89 387.869 1821.5 299.562C1820.32 297.362 1819.12 295.17 1817.94 292.969ZM2021.81 672.062C2022.11 672.512 2022.35 672.995 2022.66 673.438C2028.98 682.44 2037.07 690.175 2045.88 696.781C2042.88 694.51 2040 692.126 2037.25 689.625C2031.48 684.383 2026.16 678.546 2021.81 672.062Z" fill="#ffffff" fill-rule="nonzero" opacity="1" stroke="none" vectornator:layerName="path"/>
</g>
</svg>
